# xmcd
#
# Track frame offsets:
# 150
# 18758
# 37213
# 60732
# 79685
# 95995
# 117076
# 134945
# 150386
# 161923
# 174942
# 198907
# 220710
# 234936
#
# Disc length: 3279 seconds
#
#
# Revision: 0
# Processed by: cddbd v1.5.1PL2 Copyright (c) Steve Scherf et al.
# Submitted via: FreeRIP 2.945 
#
DISCID=ba0ccd0e
DTITLE=Maria da Paz - Da cor morena
DYEAR=2006
DGENRE=MPB
TTITLE0=Pout-pourri: Morena do mar/Ciranda do mar da vida
TTITLE1=No tempo do candeeiro e do abonador
TTITLE2=Pião lá no terreiro
TTITLE3=Setembro
TTITLE4=O xote das meninas
TTITLE5=Um cantar de amor
TTITLE6=Morena sertaneja
TTITLE7=Juazeiro
TTITLE8=Só vendo que beleza (Marambaia)
TTITLE9=Sabiá na gaiola
TTITLE10=Da cor morena
TTITLE11=A bela estrela do norte
TTITLE12=Guarânia da lua nova
TTITLE13=Vai nessa Brasil
EXTD=
EXTT0=
EXTT1=
EXTT2=
EXTT3=
EXTT4=
EXTT5=
EXTT6=
EXTT7=
EXTT8=
EXTT9=
EXTT10=
EXTT11=
EXTT12=
EXTT13=
PLAYORDER=
